<?xml version="1.0" encoding="UTF-8"?>
<svg xmlns="http://www.w3.org/2000/svg" xmlns:xlink="http://www.w3.org/1999/xlink" width="300px" height="300px" viewBox="0 0 300 300" version="1.1">
<g id="surface1">
<path style=" stroke:none;fill-rule:nonzero;fill:rgb(14.509804%,14.509804%,14.509804%);fill-opacity:1;" d="M 150 27.027344 C 190.050781 27.027344 194.796875 27.179688 210.613281 27.902344 C 225.238281 28.570312 233.179688 31.011719 238.46875 33.066406 C 244.984375 35.472656 250.875 39.304688 255.714844 44.289062 C 260.695312 49.125 264.53125 55.019531 266.933594 61.535156 C 268.988281 66.820312 271.433594 74.761719 272.101562 89.386719 C 272.820312 105.203125 272.976562 109.949219 272.976562 150 C 272.976562 190.054688 272.820312 194.796875 272.101562 210.617188 C 271.433594 225.242188 268.988281 233.183594 266.933594 238.46875 C 261.890625 251.550781 251.550781 261.890625 238.46875 266.9375 C 233.183594 268.992188 225.238281 271.433594 210.613281 272.101562 C 194.800781 272.824219 190.054688 272.976562 150 272.976562 C 109.945312 272.976562 105.203125 272.824219 89.386719 272.101562 C 74.761719 271.433594 66.820312 268.992188 61.53125 266.9375 C 55.015625 264.53125 49.125 260.699219 44.285156 255.714844 C 39.304688 250.878906 35.46875 244.984375 33.066406 238.46875 C 31.011719 233.183594 28.566406 225.242188 27.898438 210.617188 C 27.179688 194.800781 27.023438 190.054688 27.023438 150 C 27.023438 109.949219 27.179688 105.207031 27.898438 89.386719 C 28.566406 74.761719 31.011719 66.820312 33.066406 61.535156 C 35.46875 55.019531 39.304688 49.125 44.285156 44.285156 C 49.125 39.304688 55.019531 35.46875 61.535156 33.066406 C 66.820312 31.011719 74.761719 28.566406 89.386719 27.902344 C 105.203125 27.179688 109.949219 27.027344 150 27.027344 M 150 0 C 109.261719 0 104.152344 0.171875 88.15625 0.902344 C 72.191406 1.632812 61.285156 4.167969 51.746094 7.875 C 41.738281 11.640625 32.671875 17.546875 25.175781 25.175781 C 17.546875 32.667969 11.640625 41.734375 7.871094 51.742188 C 4.167969 61.285156 1.632812 72.1875 0.90625 88.15625 C 0.171875 104.152344 0 109.261719 0 150 C 0 190.738281 0.171875 195.847656 0.90625 211.84375 C 1.632812 227.8125 4.167969 238.714844 7.878906 248.253906 C 11.644531 258.265625 17.546875 267.332031 25.179688 274.824219 C 32.671875 282.453125 41.738281 288.359375 51.746094 292.125 C 61.289062 295.832031 72.191406 298.367188 88.15625 299.097656 C 104.15625 299.828125 109.265625 300 150.003906 300 C 190.738281 300 195.851562 299.828125 211.847656 299.097656 C 227.8125 298.367188 238.71875 295.832031 248.257812 292.125 C 268.40625 284.332031 284.335938 268.402344 292.128906 248.253906 C 295.835938 238.714844 298.371094 227.808594 299.101562 211.84375 C 299.828125 195.84375 300.003906 190.738281 300.003906 150 C 300.003906 109.261719 299.828125 104.152344 299.101562 88.15625 C 298.371094 72.1875 295.835938 61.285156 292.128906 51.746094 C 288.359375 41.734375 282.457031 32.667969 274.824219 25.175781 C 267.332031 17.542969 258.265625 11.640625 248.257812 7.871094 C 238.714844 4.167969 227.8125 1.632812 211.84375 0.90625 C 195.847656 0.171875 190.738281 0 150 0 Z M 150 0 "/>
<path style=" stroke:none;fill-rule:nonzero;fill:rgb(14.509804%,14.509804%,14.509804%);fill-opacity:1;" d="M 150 72.972656 C 107.457031 72.972656 72.972656 107.457031 72.972656 150 C 72.972656 192.542969 107.457031 227.027344 150 227.027344 C 192.542969 227.027344 227.027344 192.542969 227.027344 150 C 227.027344 107.457031 192.542969 72.972656 150 72.972656 Z M 150 200 C 122.386719 200 100 177.613281 100 150 C 100 122.386719 122.386719 100 150 100 C 177.613281 100 200 122.386719 200 150 C 200 177.613281 177.613281 200 150 200 Z M 150 200 "/>
<path style=" stroke:none;fill-rule:nonzero;fill:rgb(14.509804%,14.509804%,14.509804%);fill-opacity:1;" d="M 248.070312 69.929688 C 248.070312 79.871094 240.011719 87.929688 230.070312 87.929688 C 220.128906 87.929688 212.070312 79.871094 212.070312 69.929688 C 212.070312 59.988281 220.128906 51.929688 230.070312 51.929688 C 240.011719 51.929688 248.070312 59.988281 248.070312 69.929688 Z M 248.070312 69.929688 "/>
</g>
</svg>
