<svg xmlns="http://www.w3.org/2000/svg" width="1591.951" height="152.7" style="">
  <path fill="#333" fill-rule="evenodd" stroke="#e5e2ff" stroke-linecap="round" stroke-width="1mm" d="M26.85 119.85H0V8.1h26.85v111.75ZM73.2 60.9H58.65L53.4 25.95l-.9-23.7h26.85l-.9 23.7L73.2 60.9Zm56.55 58.95h-26.7V34.5h21.75l1.95 10.8h.45q5.25-5.25 11.25-9.075a23.75 23.75 0 0 1 8.196-3.218 33.163 33.163 0 0 1 6.504-.607 35.645 35.645 0 0 1 6.124.496q3.384.591 6.138 1.885A19.459 19.459 0 0 1 167.625 36a23.3 23.3 0 0 1 6.885 6.88 29.968 29.968 0 0 1 2.04 3.62q5.55-5.7 11.85-9.9a24.975 24.975 0 0 1 11.091-3.984 31.968 31.968 0 0 1 3.759-.216 32.869 32.869 0 0 1 7.888.886 20.447 20.447 0 0 1 12.437 8.414 33.056 33.056 0 0 1 4.441 9.718q1.209 4.245 1.662 9.29a70.934 70.934 0 0 1 .272 6.342v52.8h-26.7v-49.5a52.829 52.829 0 0 0-.136-3.952q-.427-5.661-2.189-8.048-2.325-3.15-7.425-3.15-2.363 0-5.138 1.289a20.648 20.648 0 0 0-1.162.586q-2.682 1.458-5.636 4.139a49.073 49.073 0 0 0-1.714 1.636v57h-26.7v-49.5a51.185 51.185 0 0 0-.141-3.952q-.292-3.759-1.193-6.075a8.064 8.064 0 0 0-1.066-1.973q-2.292-3.008-7.047-3.144a15.938 15.938 0 0 0-.453-.006q-2.363 0-5.138 1.289a20.648 20.648 0 0 0-1.162.586 23.08 23.08 0 0 0-2.964 1.942q-1.422 1.085-2.891 2.49a45.329 45.329 0 0 0-1.345 1.343v57Zm205.95 0h-26.85v-89.4H278.7V8.1H366v22.35h-30.3v89.4Zm42.15-58.65-9.3-17.55q5.7-3.45 11.625-5.925 5.925-2.475 12.225-3.9 6.3-1.425 12.9-1.425 10.07 0 17.301 3.457a29.013 29.013 0 0 1 1.449.743 26.828 26.828 0 0 1 10.631 10.738 33.706 33.706 0 0 1 1.069 2.087 38.771 38.771 0 0 1 2.733 8.284q.864 3.988 1.161 8.638a79.274 79.274 0 0 1 .156 5.053v48.45h-21.75l-1.8-8.55h-.75q-5.25 4.65-11.325 7.65-6.075 3-13.125 3a29.016 29.016 0 0 1-6.851-.775 22.732 22.732 0 0 1-6.649-2.75q-5.7-3.525-8.775-9.45a27.647 27.647 0 0 1-3.072-12.535 32.09 32.09 0 0 1-.003-.44 25.831 25.831 0 0 1 2.002-10.336q2.444-5.664 7.87-9.757a31.526 31.526 0 0 1 1.378-.982Q388.2 67.35 413.1 64.65q-.3-3.45-1.65-5.925a8.502 8.502 0 0 0-3.576-3.479 10.65 10.65 0 0 0-.549-.271 12.484 12.484 0 0 0-2.515-.826q-1.267-.28-2.751-.386a26.279 26.279 0 0 0-1.859-.063q-5.1 0-10.5 1.95a65.655 65.655 0 0 0-4.926 2.022q-2.472 1.127-5.131 2.548a111.79 111.79 0 0 0-1.793.98Zm35.25 33.3V80.85q-5.37.683-9.31 1.748a34.638 34.638 0 0 0-3.815 1.252 27.512 27.512 0 0 0-2.706 1.244q-2.786 1.483-4.194 3.256-2.025 2.55-2.025 5.55 0 3.75 2.475 5.55a8.716 8.716 0 0 0 2.802 1.321q1.174.329 2.564.432a17.753 17.753 0 0 0 1.309.047 15.422 15.422 0 0 0 3.566-.396 12.194 12.194 0 0 0 3.484-1.404 22.893 22.893 0 0 0 3.236-2.372A30.776 30.776 0 0 0 413.1 94.5Zm73.5 25.35h-26.25V0h26.25v66.6h.75l25.2-32.1h29.25l-29.7 35.55 31.8 49.8h-28.95l-18.45-32.4-9.9 11.25v21.15ZM561 61.2l-9.3-17.55q5.7-3.45 11.625-5.925 5.925-2.475 12.225-3.9 6.3-1.425 12.9-1.425 10.07 0 17.301 3.457a29.013 29.013 0 0 1 1.449.743 26.828 26.828 0 0 1 10.631 10.738 33.706 33.706 0 0 1 1.069 2.087 38.771 38.771 0 0 1 2.733 8.284q.864 3.988 1.161 8.638a79.274 79.274 0 0 1 .156 5.053v48.45H601.2l-1.8-8.55h-.75q-5.25 4.65-11.325 7.65-6.075 3-13.125 3a29.016 29.016 0 0 1-6.851-.775 22.732 22.732 0 0 1-6.649-2.75q-5.7-3.525-8.775-9.45a27.647 27.647 0 0 1-3.072-12.535 32.09 32.09 0 0 1-.003-.44 25.831 25.831 0 0 1 2.002-10.336q2.444-5.664 7.87-9.757a31.526 31.526 0 0 1 1.378-.982q11.25-7.575 36.15-10.275-.3-3.45-1.65-5.925a8.502 8.502 0 0 0-3.576-3.479 10.65 10.65 0 0 0-.549-.271 12.484 12.484 0 0 0-2.515-.826q-1.267-.28-2.751-.386a26.279 26.279 0 0 0-1.859-.063q-5.1 0-10.5 1.95a65.655 65.655 0 0 0-4.926 2.022q-2.472 1.127-5.131 2.548a111.79 111.79 0 0 0-1.793.98Zm35.25 33.3V80.85q-5.37.683-9.31 1.748a34.638 34.638 0 0 0-3.815 1.252 27.512 27.512 0 0 0-2.706 1.244q-2.786 1.483-4.194 3.256-2.025 2.55-2.025 5.55 0 3.75 2.475 5.55a8.716 8.716 0 0 0 2.802 1.321q1.174.329 2.564.432a17.753 17.753 0 0 0 1.309.047 15.422 15.422 0 0 0 3.566-.396 12.194 12.194 0 0 0 3.484-1.404 22.893 22.893 0 0 0 3.236-2.372 30.776 30.776 0 0 0 2.614-2.578Zm45.3 56.55 4.8-20.25q1.031.129 2.284.479a23.182 23.182 0 0 1 .416.121q1.5.45 3 .45a21.274 21.274 0 0 0 3.647-.292q3.56-.621 5.803-2.558 3.3-2.85 4.8-7.35l1.2-4.35-32.7-82.8h26.85l11.4 35.4q1.95 5.85 3.45 11.85 1.5 6 3.15 12.3h.75q1.2-6.15 2.625-12.15t2.925-12l9.9-35.4h25.5l-29.4 85.5a108.234 108.234 0 0 1-3.577 8.585q-2.561 5.434-5.423 9.64a36.48 36.48 0 0 1-5.696 6.609 29.837 29.837 0 0 1-6.079 4.266 29.212 29.212 0 0 1-7.404 2.643q-3.271.718-7.047.897a54.226 54.226 0 0 1-2.574.06 65.049 65.049 0 0 1-2.96-.063q-1.371-.063-2.556-.187a29.914 29.914 0 0 1-1.534-.2q-2.85-.45-5.55-1.2ZM738 61.2l-9.3-17.55q5.7-3.45 11.625-5.925 5.925-2.475 12.225-3.9 6.3-1.425 12.9-1.425 10.07 0 17.301 3.457a29.013 29.013 0 0 1 1.449.743 26.828 26.828 0 0 1 10.631 10.738 33.706 33.706 0 0 1 1.069 2.087 38.771 38.771 0 0 1 2.733 8.284q.864 3.988 1.161 8.638a79.274 79.274 0 0 1 .156 5.053v48.45H778.2l-1.8-8.55h-.75q-5.25 4.65-11.325 7.65-6.075 3-13.125 3a29.016 29.016 0 0 1-6.851-.775 22.732 22.732 0 0 1-6.649-2.75q-5.7-3.525-8.775-9.45a27.647 27.647 0 0 1-3.072-12.535 32.09 32.09 0 0 1-.003-.44 25.831 25.831 0 0 1 2.002-10.336q2.444-5.664 7.87-9.757a31.526 31.526 0 0 1 1.378-.982q11.25-7.575 36.15-10.275-.3-3.45-1.65-5.925a8.502 8.502 0 0 0-3.576-3.479 10.65 10.65 0 0 0-.549-.271 12.484 12.484 0 0 0-2.515-.826q-1.267-.28-2.751-.386a26.279 26.279 0 0 0-1.859-.063q-5.1 0-10.5 1.95a65.655 65.655 0 0 0-4.926 2.022q-2.472 1.127-5.131 2.548a111.79 111.79 0 0 0-1.793.98Zm35.25 33.3V80.85q-5.37.683-9.31 1.748a34.638 34.638 0 0 0-3.815 1.252 27.512 27.512 0 0 0-2.706 1.244q-2.786 1.483-4.194 3.256-2.025 2.55-2.025 5.55 0 3.75 2.475 5.55a8.716 8.716 0 0 0 2.802 1.321q1.174.329 2.564.432a17.753 17.753 0 0 0 1.309.047 15.422 15.422 0 0 0 3.566-.396 12.194 12.194 0 0 0 3.484-1.404 22.893 22.893 0 0 0 3.236-2.372 30.776 30.776 0 0 0 2.614-2.578Zm73.95 25.35h-26.7V34.5h21.75l1.95 10.8h.45q5.25-5.25 11.25-9.075a23.75 23.75 0 0 1 8.196-3.218 33.163 33.163 0 0 1 6.504-.607 35.645 35.645 0 0 1 6.124.496q3.384.591 6.138 1.885A19.459 19.459 0 0 1 885.075 36a23.3 23.3 0 0 1 6.885 6.88A29.968 29.968 0 0 1 894 46.5q5.55-5.7 11.85-9.9a24.975 24.975 0 0 1 11.091-3.984 31.968 31.968 0 0 1 3.759-.216 32.869 32.869 0 0 1 7.888.886 20.447 20.447 0 0 1 12.437 8.414 33.056 33.056 0 0 1 4.441 9.718q1.209 4.245 1.662 9.29a70.934 70.934 0 0 1 .272 6.342v52.8h-26.7v-49.5a52.829 52.829 0 0 0-.136-3.952q-.427-5.661-2.189-8.048-2.325-3.15-7.425-3.15-2.363 0-5.138 1.289a20.648 20.648 0 0 0-1.162.586q-2.682 1.458-5.636 4.139a49.073 49.073 0 0 0-1.714 1.636v57h-26.7v-49.5a51.185 51.185 0 0 0-.141-3.952q-.292-3.759-1.193-6.075a8.064 8.064 0 0 0-1.066-1.973q-2.292-3.008-7.047-3.144a15.938 15.938 0 0 0-.453-.006q-2.363 0-5.138 1.289a20.648 20.648 0 0 0-1.162.586 23.08 23.08 0 0 0-2.964 1.942q-1.422 1.085-2.891 2.49a45.329 45.329 0 0 0-1.345 1.343v57ZM976.65 61.2l-9.3-17.55q5.7-3.45 11.625-5.925 5.925-2.475 12.225-3.9 6.3-1.425 12.9-1.425 10.07 0 17.301 3.457a29.013 29.013 0 0 1 1.449.743 26.828 26.828 0 0 1 10.631 10.738 33.706 33.706 0 0 1 1.069 2.087 38.771 38.771 0 0 1 2.733 8.284q.864 3.988 1.161 8.638a79.274 79.274 0 0 1 .156 5.053v48.45h-21.75l-1.8-8.55h-.75q-5.25 4.65-11.325 7.65-6.075 3-13.125 3a29.016 29.016 0 0 1-6.851-.775 22.732 22.732 0 0 1-6.649-2.75q-5.7-3.525-8.775-9.45a27.647 27.647 0 0 1-3.072-12.535 32.09 32.09 0 0 1-.003-.44 25.831 25.831 0 0 1 2.002-10.336q2.444-5.664 7.87-9.757a31.526 31.526 0 0 1 1.378-.982Q987 67.35 1011.9 64.65q-.3-3.45-1.65-5.925a8.502 8.502 0 0 0-3.576-3.479 10.65 10.65 0 0 0-.549-.271 12.484 12.484 0 0 0-2.515-.826q-1.267-.28-2.751-.386A26.279 26.279 0 0 0 999 53.7q-5.1 0-10.5 1.95a65.655 65.655 0 0 0-4.926 2.022q-2.472 1.127-5.131 2.548a111.79 111.79 0 0 0-1.793.98Zm35.25 33.3V80.85q-5.37.683-9.31 1.748a34.638 34.638 0 0 0-3.815 1.252 27.512 27.512 0 0 0-2.706 1.244q-2.786 1.483-4.194 3.256-2.025 2.55-2.025 5.55 0 3.75 2.475 5.55a8.716 8.716 0 0 0 2.802 1.321q1.174.329 2.564.432a17.753 17.753 0 0 0 1.309.047 15.422 15.422 0 0 0 3.566-.396 12.194 12.194 0 0 0 3.484-1.404 22.893 22.893 0 0 0 3.236-2.372 30.776 30.776 0 0 0 2.614-2.578Zm108.3 25.35h-26.7V0h26.7v28.8l-1.35 15.15a52.922 52.922 0 0 1 6.486-5.145 65.536 65.536 0 0 1 4.539-2.805 27.353 27.353 0 0 1 8.877-3.094 36.449 36.449 0 0 1 6.198-.506q13.95 0 20.25 9.3 4.99 7.366 6.027 18.965a71.707 71.707 0 0 1 .273 6.385v52.8h-26.7v-49.5a51.185 51.185 0 0 0-.141-3.952q-.292-3.759-1.193-6.075a8.064 8.064 0 0 0-1.066-1.973q-2.292-3.008-7.047-3.144a15.938 15.938 0 0 0-.453-.006 17.293 17.293 0 0 0-3.618.36 12.594 12.594 0 0 0-4.032 1.59q-2.35 1.455-5.118 3.912a66.21 66.21 0 0 0-1.932 1.788v57Zm80.4-58.65-9.3-17.55q5.7-3.45 11.625-5.925 5.925-2.475 12.225-3.9 6.3-1.425 12.9-1.425 10.07 0 17.301 3.457a29.013 29.013 0 0 1 1.449.743 26.828 26.828 0 0 1 10.631 10.738 33.706 33.706 0 0 1 1.069 2.087 38.771 38.771 0 0 1 2.733 8.284q.864 3.988 1.161 8.638a79.274 79.274 0 0 1 .156 5.053v48.45h-21.75l-1.8-8.55h-.75q-5.25 4.65-11.325 7.65-6.075 3-13.125 3a29.016 29.016 0 0 1-6.851-.775 22.732 22.732 0 0 1-6.649-2.75q-5.7-3.525-8.775-9.45a27.647 27.647 0 0 1-3.072-12.535 32.09 32.09 0 0 1-.003-.44 25.831 25.831 0 0 1 2.002-10.336q2.444-5.664 7.87-9.757a31.526 31.526 0 0 1 1.378-.982q11.25-7.575 36.15-10.275-.3-3.45-1.65-5.925a8.502 8.502 0 0 0-3.576-3.479 10.65 10.65 0 0 0-.549-.271 12.484 12.484 0 0 0-2.515-.826q-1.267-.28-2.751-.386a26.279 26.279 0 0 0-1.859-.063q-5.1 0-10.5 1.95a65.655 65.655 0 0 0-4.926 2.022q-2.472 1.127-5.131 2.548a111.79 111.79 0 0 0-1.793.98Zm35.25 33.3V80.85q-5.37.683-9.31 1.748a34.638 34.638 0 0 0-3.815 1.252 27.512 27.512 0 0 0-2.706 1.244q-2.786 1.483-4.194 3.256-2.025 2.55-2.025 5.55 0 3.75 2.475 5.55a8.716 8.716 0 0 0 2.802 1.321q1.174.329 2.564.432a17.753 17.753 0 0 0 1.309.047 15.422 15.422 0 0 0 3.566-.396A12.194 12.194 0 0 0 1230 99.45a22.893 22.893 0 0 0 3.236-2.372 30.776 30.776 0 0 0 2.614-2.578Zm73.95 25.35h-26.7V34.5h21.75l1.95 14.85h.45a44.266 44.266 0 0 1 4.185-6.229q2.806-3.461 6.062-5.789a26.642 26.642 0 0 1 1.078-.732 28.698 28.698 0 0 1 5.644-2.853 21.188 21.188 0 0 1 7.331-1.347q3.722 0 6.009.478a13.775 13.775 0 0 1 .216.047q2.325.525 4.125 1.275l-4.35 22.95q-2.4-.6-4.5-.975a22.232 22.232 0 0 0-1.972-.256q-1.369-.119-2.978-.119a14.386 14.386 0 0 0-4.776.861q-1.844.647-3.762 1.78a27.948 27.948 0 0 0-1.287.809 17.826 17.826 0 0 0-4.169 3.966q-2.45 3.159-4.306 7.884v48.75Zm42-32.55V34.5h26.7V84a49.564 49.564 0 0 0 .145 3.95q.446 5.544 2.255 7.975 2.4 3.225 7.5 3.225a16.725 16.725 0 0 0 3.816-.416 12.754 12.754 0 0 0 3.909-1.609q2.343-1.471 4.726-4.328a38.016 38.016 0 0 0 1.799-2.347V34.5h26.7v85.35h-21.75l-1.95-11.7h-.6q-5.25 6.3-11.55 10.05a26.221 26.221 0 0 1-9.057 3.266 35.049 35.049 0 0 1-5.943.484q-14.1 0-20.4-9.375a33.802 33.802 0 0 1-4.416-9.836q-1.884-6.744-1.884-15.439Zm102.45.9V55.35h-11.55v-19.8l13.2-1.05 3-22.65h22.05V34.5h20.1v20.85h-20.1V87.9q0 7.05 3.075 10.125a10.376 10.376 0 0 0 7.221 3.066 13.684 13.684 0 0 0 .504.009q2.1 0 4.2-.525a36.945 36.945 0 0 0 1.491-.404q.732-.216 1.373-.444a19.991 19.991 0 0 0 .736-.277l4.2 19.35q-2.527.804-5.888 1.608a136.745 136.745 0 0 1-2.137.492 40.261 40.261 0 0 1-4.32.699q-2.193.241-4.681.317a76.762 76.762 0 0 1-2.324.034 43.501 43.501 0 0 1-7.141-.552q-5.908-.984-10.184-3.723-6.675-4.275-9.75-11.85a40.543 40.543 0 0 1-2.444-9.025 55.79 55.79 0 0 1-.631-8.6Zm96 33.75q-10.8 0-20.4-5.325a40.659 40.659 0 0 1-14.961-14.443 48.276 48.276 0 0 1-.564-.932 41.8 41.8 0 0 1-5.021-13.752 57.159 57.159 0 0 1-.904-10.398q0-14.1 5.925-24.075a41.901 41.901 0 0 1 10.955-12.347 40.192 40.192 0 0 1 4.57-2.953q9.6-5.325 20.4-5.325 8.1 0 15.6 3t13.35 8.775a41.538 41.538 0 0 1 8.163 11.507 48.757 48.757 0 0 1 1.137 2.518 43.724 43.724 0 0 1 2.881 10.643 57.586 57.586 0 0 1 .569 8.257 56.142 56.142 0 0 1-1.134 11.562 41.34 41.34 0 0 1-4.791 12.588 42.573 42.573 0 0 1-9.587 11.372 39.538 39.538 0 0 1-5.863 4.003q-9.525 5.325-20.325 5.325Zm0-21.6q4.95 0 8.175-2.85 3.042-2.689 4.55-7.513a25.002 25.002 0 0 0 .175-.587q1.5-5.25 1.5-12.3 0-6.158-1.145-10.886a31.072 31.072 0 0 0-.355-1.339q-1.43-4.935-4.429-7.755a12.9 12.9 0 0 0-.296-.27Q1555.2 54 1550.25 54q-4.95 0-8.175 2.85a14.643 14.643 0 0 0-3.097 3.926q-1.011 1.825-1.703 4.099a34.126 34.126 0 0 0-1.13 5.261q-.362 2.614-.429 5.577a60.649 60.649 0 0 0-.016 1.387 53.33 53.33 0 0 0 .301 5.824q.388 3.523 1.274 6.476a21.903 21.903 0 0 0 1.482 3.735q1.099 2.136 2.603 3.682a13.028 13.028 0 0 0 .715.683q3.225 2.85 8.175 2.85Z" font-size="12" style="stroke:#e5e2ff;stroke-width:1mm;fill:#654ea3" vector-effect="non-scaling-stroke" class="HHYsLhWs_0"></path>
<style data-made-with="vivus-instant">.HHYsLhWs_0{stroke-dasharray:7414 7416;stroke-dashoffset:7415;animation:HHYsLhWs_draw_0 10000ms ease-in-out 0ms infinite,HHYsLhWs_fade 10000ms linear 0ms infinite;}@keyframes HHYsLhWs_draw{100%{stroke-dashoffset:0;}}@keyframes HHYsLhWs_fade{0%{stroke-opacity:1;}100%{stroke-opacity:1;}100%{stroke-opacity:0;}}@keyframes HHYsLhWs_draw_0{0%{stroke-dashoffset: 7415}100%{ stroke-dashoffset: 0;}100%{ stroke-dashoffset: 0;}}</style></svg>
