<svg
    xmlns="http://www.w3.org/2000/svg"
    viewBox="0 0 101.8 1103.202"
    width="101.80000305175781"
    height="100vh"
>
    <g
        xmlns="http://www.w3.org/2000/svg"
        transform="matrix(0 -1 1 0 -0 1103.202)"
    >
    <g
        id="svgGroup"
        stroke-linecap="round"
        fill-rule="evenodd"
        font-size="9pt"
        stroke="#d5bcde"
        stroke-width="0.5mm"
        fill="#ffffff00"
        style="stroke: #d5bcde; stroke-width: 0.5mm; fill: #ffffff00"
    >
        <style>
            svg .svg-elem-1 {
                stroke-dashoffset: 186.8000030517578px;
                stroke-dasharray: 186.8000030517578px;
                transition: stroke-dashoffset 0.3s ease 0s, fill 1.5s ease 0.8s;
            }

            svg.active .svg-elem-1 {
                stroke-dashoffset: 373.6000061035156px;
            }

            svg .svg-elem-2 {
                stroke-dashoffset: 108.34558868408203px;
                stroke-dasharray: 108.34558868408203px;
                transition: stroke-dashoffset 0.3s ease 0.12s, fill 1.5s ease 0.9s;
            }

            svg.active .svg-elem-2 {
                stroke-dashoffset: 216.69117736816406px;
            }

            svg .svg-elem-3 {
                stroke-dashoffset: 453.9753723144531px;
                stroke-dasharray: 453.9753723144531px;
                transition: stroke-dashoffset 0.3s ease 0.24s, fill 1.5s ease 1s;
            }

            svg.active .svg-elem-3 {
                stroke-dashoffset: 907.9507446289062px;
            }

            svg .svg-elem-4 {
                stroke-dashoffset: 267.3999938964844px;
                stroke-dasharray: 267.3999938964844px;
                transition: stroke-dashoffset 0.3s ease 0.36s, fill 1.5s ease 1.1s;
            }

            svg.active .svg-elem-4 {
                stroke-dashoffset: 534.7999877929688px;
            }

            svg .svg-elem-5 {
                stroke-dashoffset: 296.54351806640625px;
                stroke-dasharray: 296.54351806640625px;
                transition: stroke-dashoffset 0.3s ease 0.48s, fill 1.5s ease 1.2000000000000002s;
            }

            svg.active .svg-elem-5 {
                stroke-dashoffset: 593.0870361328125px;
            }

            svg .svg-elem-6 {
                stroke-dashoffset: 347.0276794433594px;
                stroke-dasharray: 347.0276794433594px;
                transition: stroke-dashoffset 0.3s ease 0.6s, fill 1.5s ease 1.3s;
            }

            svg.active .svg-elem-6 {
                stroke-dashoffset: 694.0553588867188px;
            }

            svg .svg-elem-7 {
                stroke-dashoffset: 296.5435485839844px;
                stroke-dasharray: 296.5435485839844px;
                transition: stroke-dashoffset 0.3s ease 0.72s, fill 1.5s ease 1.4000000000000001s;
            }

            svg.active .svg-elem-7 {
                stroke-dashoffset: 593.0870971679688px;
            }

            svg .svg-elem-8 {
                stroke-dashoffset: 317.54058837890625px;
                stroke-dasharray: 317.54058837890625px;
                transition: stroke-dashoffset 0.3s ease 0.84s, fill 1.5s ease 1.5s;
            }

            svg.active .svg-elem-8 {
                stroke-dashoffset: 635.0811767578125px;
            }

            svg .svg-elem-9 {
                stroke-dashoffset: 296.54364013671875px;
                stroke-dasharray: 296.54364013671875px;
                transition: stroke-dashoffset 0.3s ease 0.96s, fill 1.5s ease 1.6s;
            }

            svg.active .svg-elem-9 {
                stroke-dashoffset: 593.0872802734375px;
            }

            svg .svg-elem-10 {
                stroke-dashoffset: 453.97576904296875px;
                stroke-dasharray: 453.97576904296875px;
                transition: stroke-dashoffset 0.3s ease 1.08s, fill 1.5s ease 1.7000000000000002s;
            }

            svg.active .svg-elem-10 {
                stroke-dashoffset: 907.9515380859375px;
            }

            svg .svg-elem-11 {
                stroke-dashoffset: 296.5437927246094px;
                stroke-dasharray: 296.5437927246094px;
                transition: stroke-dashoffset 0.3s ease 1.2s, fill 1.5s ease 1.8s;
            }

            svg.active .svg-elem-11 {
                stroke-dashoffset: 593.0875854492188px;
            }

            svg .svg-elem-12 {
                stroke-dashoffset: 389.39990234375px;
                stroke-dasharray: 389.39990234375px;
                transition: stroke-dashoffset 0.3s ease 1.3199999999999998s, fill 1.5s ease 1.9000000000000001s;
            }

            svg.active .svg-elem-12 {
                stroke-dashoffset: 778.7998046875px;
            }

            svg .svg-elem-13 {
                stroke-dashoffset: 296.5438232421875px;
                stroke-dasharray: 296.5438232421875px;
                transition: stroke-dashoffset 0.3s ease 1.44s, fill 1.5s ease 2s;
            }

            svg.active .svg-elem-13 {
                stroke-dashoffset: 593.087646484375px;
            }

            svg .svg-elem-14 {
                stroke-dashoffset: 200.6038360595703px;
                stroke-dasharray: 200.6038360595703px;
                transition: stroke-dashoffset 0.3s ease 1.56s, fill 1.5s ease 2.1s;
            }

            svg.active .svg-elem-14 {
                stroke-dashoffset: 401.2076721191406px;
            }

            svg .svg-elem-15 {
                stroke-dashoffset: 302.2989196777344px;
                stroke-dasharray: 302.2989196777344px;
                transition: stroke-dashoffset 0.3s ease 1.68s, fill 1.5s ease 2.2s;
            }

            svg.active .svg-elem-15 {
                stroke-dashoffset: 604.5978393554688px;
            }

            svg .svg-elem-16 {
                stroke-dashoffset: 240.12660217285156px;
                stroke-dasharray: 240.12660217285156px;
                transition: stroke-dashoffset 0.3s ease 1.7999999999999998s, fill 1.5s ease 2.3s;
            }

            svg.active .svg-elem-16 {
                stroke-dashoffset: 480.2532043457031px;
            }

            svg .svg-elem-17 {
                stroke-dashoffset: 266.5939636230469px;
                stroke-dasharray: 266.5939636230469px;
                transition: stroke-dashoffset 0.3s ease 1.92s, fill 1.5s ease 2.4000000000000004s;
            }

            svg.active .svg-elem-17 {
                stroke-dashoffset: 533.1879272460938px;
            }

            svg .svg-elem-18 {
                stroke-dashoffset: 70.4702377319336px;
                stroke-dasharray: 70.4702377319336px;
                transition: stroke-dashoffset 0.3s ease 2.04s, fill 1.5s ease 2.5s;
            }

            svg.active .svg-elem-18 {
                stroke-dashoffset: 140.9404754638672px;
            }
        </style>
            <path
              d="M 17.9 79.9 L 0 79.9 L 0 5.4 L 17.9 5.4 L 17.9 79.9 Z"
              id="0"
              vector-effect="non-scaling-stroke"
              class="svg-elem-1"
            ></path>
            <path
              d="M 48.8 40.6 L 39.1 40.6 L 35.6 17.3 L 35 1.5 L 52.9 1.5 L 52.3 17.3 L 48.8 40.6 Z"
              id="1"
              vector-effect="non-scaling-stroke"
              class="svg-elem-2"
            ></path>
            <path
              d="M 86.5 79.9 L 68.7 79.9 L 68.7 23 L 83.2 23 L 84.5 30.2 L 84.8 30.2 Q 88.3 26.7 92.3 24.15 A 15.833 15.833 0 0 1 97.764 22.005 A 22.108 22.108 0 0 1 102.1 21.6 Q 106.898 21.6 110.275 23.187 A 12.972 12.972 0 0 1 111.75 24 A 15.533 15.533 0 0 1 116.34 28.587 A 19.979 19.979 0 0 1 117.7 31 Q 121.4 27.2 125.6 24.4 A 16.65 16.65 0 0 1 132.994 21.744 A 21.312 21.312 0 0 1 135.5 21.6 A 21.913 21.913 0 0 1 140.759 22.19 A 13.632 13.632 0 0 1 149.05 27.8 Q 152.422 32.719 153.119 40.472 A 47.29 47.29 0 0 1 153.3 44.7 L 153.3 79.9 L 135.5 79.9 L 135.5 46.9 A 35.219 35.219 0 0 0 135.409 44.265 Q 135.125 40.491 133.95 38.9 Q 132.489 36.92 129.384 36.807 A 10.507 10.507 0 0 0 129 36.8 Q 127.425 36.8 125.574 37.659 A 13.765 13.765 0 0 0 124.8 38.05 Q 123.012 39.022 121.043 40.809 A 32.715 32.715 0 0 0 119.9 41.9 L 119.9 79.9 L 102.1 79.9 L 102.1 46.9 A 34.123 34.123 0 0 0 102.006 44.265 Q 101.811 41.759 101.211 40.216 A 5.376 5.376 0 0 0 100.5 38.9 A 5.078 5.078 0 0 0 97.711 37.071 Q 96.722 36.8 95.5 36.8 Q 93.925 36.8 92.074 37.659 A 13.765 13.765 0 0 0 91.3 38.05 Q 89 39.3 86.5 41.9 L 86.5 79.9 Z"
              id="2"
              vector-effect="non-scaling-stroke"
              class="svg-elem-3"
            ></path>
            <path
              d="M 223.8 79.9 L 205.9 79.9 L 205.9 20.3 L 185.8 20.3 L 185.8 5.4 L 244 5.4 L 244 20.3 L 223.8 20.3 L 223.8 79.9 Z"
              id="4"
              vector-effect="non-scaling-stroke"
              class="svg-elem-4"
            ></path>
            <path
              d="M 251.9 40.8 L 245.7 29.1 Q 249.5 26.8 253.45 25.15 Q 257.4 23.5 261.6 22.55 Q 265.8 21.6 270.2 21.6 Q 276.913 21.6 281.734 23.905 A 19.342 19.342 0 0 1 282.7 24.4 A 17.885 17.885 0 0 1 289.787 31.559 A 22.471 22.471 0 0 1 290.5 32.95 Q 292.671 37.573 293.096 44.231 A 52.849 52.849 0 0 1 293.2 47.6 L 293.2 79.9 L 278.7 79.9 L 277.5 74.2 L 277 74.2 Q 273.5 77.3 269.45 79.3 Q 265.4 81.3 260.7 81.3 A 19.344 19.344 0 0 1 256.133 80.784 A 15.155 15.155 0 0 1 251.7 78.95 Q 247.9 76.6 245.85 72.65 A 18.432 18.432 0 0 1 243.802 64.293 A 21.392 21.392 0 0 1 243.8 64 A 17.22 17.22 0 0 1 245.135 57.109 Q 246.764 53.333 250.382 50.604 A 21.017 21.017 0 0 1 251.3 49.95 A 28.546 28.546 0 0 1 256.876 47.111 Q 263.987 44.338 275.4 43.1 A 11.959 11.959 0 0 0 275.075 41.149 A 8.686 8.686 0 0 0 274.3 39.15 A 5.668 5.668 0 0 0 271.916 36.831 A 7.1 7.1 0 0 0 271.55 36.65 A 8.323 8.323 0 0 0 269.874 36.1 Q 268.522 35.8 266.8 35.8 A 19.521 19.521 0 0 0 261.823 36.468 A 23.717 23.717 0 0 0 259.8 37.1 A 43.77 43.77 0 0 0 256.516 38.448 Q 254.868 39.2 253.096 40.147 A 74.527 74.527 0 0 0 251.9 40.8 Z M 275.4 63 L 275.4 53.9 A 57.946 57.946 0 0 0 272.182 54.396 Q 270.559 54.696 269.194 55.065 A 23.092 23.092 0 0 0 266.65 55.9 A 18.341 18.341 0 0 0 264.846 56.729 Q 262.989 57.718 262.05 58.9 A 6.331 6.331 0 0 0 261.017 60.733 A 5.574 5.574 0 0 0 260.7 62.6 A 6 6 0 0 0 260.861 64.036 A 3.835 3.835 0 0 0 262.35 66.3 A 5.811 5.811 0 0 0 264.218 67.181 Q 265.001 67.4 265.928 67.469 A 11.835 11.835 0 0 0 266.8 67.5 A 10.281 10.281 0 0 0 269.177 67.236 A 8.129 8.129 0 0 0 271.5 66.3 Q 273.5 65.1 275.4 63 Z"
              id="5"
              vector-effect="non-scaling-stroke"
              class="svg-elem-5"
            ></path>
            <path
              d="M 324.4 79.9 L 306.9 79.9 L 306.9 0 L 324.4 0 L 324.4 44.4 L 324.9 44.4 L 341.7 23 L 361.2 23 L 341.4 46.7 L 362.6 79.9 L 343.3 79.9 L 331 58.3 L 324.4 65.8 L 324.4 79.9 Z"
              id="6"
              vector-effect="non-scaling-stroke"
              class="svg-elem-6"
            ></path>
            <path
              d="M 374 40.8 L 367.8 29.1 Q 371.6 26.8 375.55 25.15 Q 379.5 23.5 383.7 22.55 Q 387.9 21.6 392.3 21.6 Q 399.013 21.6 403.834 23.905 A 19.342 19.342 0 0 1 404.8 24.4 A 17.885 17.885 0 0 1 411.887 31.559 A 22.471 22.471 0 0 1 412.6 32.95 Q 414.771 37.573 415.196 44.231 A 52.849 52.849 0 0 1 415.3 47.6 L 415.3 79.9 L 400.8 79.9 L 399.6 74.2 L 399.1 74.2 Q 395.6 77.3 391.55 79.3 Q 387.5 81.3 382.8 81.3 A 19.344 19.344 0 0 1 378.233 80.784 A 15.155 15.155 0 0 1 373.8 78.95 Q 370 76.6 367.95 72.65 A 18.432 18.432 0 0 1 365.902 64.293 A 21.392 21.392 0 0 1 365.9 64 A 17.22 17.22 0 0 1 367.235 57.109 Q 368.864 53.333 372.482 50.604 A 21.017 21.017 0 0 1 373.4 49.95 A 28.546 28.546 0 0 1 378.976 47.111 Q 386.088 44.338 397.5 43.1 A 11.959 11.959 0 0 0 397.175 41.149 A 8.686 8.686 0 0 0 396.4 39.15 A 5.668 5.668 0 0 0 394.016 36.831 A 7.1 7.1 0 0 0 393.65 36.65 A 8.323 8.323 0 0 0 391.974 36.1 Q 390.622 35.8 388.9 35.8 A 19.521 19.521 0 0 0 383.923 36.468 A 23.717 23.717 0 0 0 381.9 37.1 A 43.77 43.77 0 0 0 378.616 38.448 Q 376.968 39.2 375.196 40.147 A 74.527 74.527 0 0 0 374 40.8 Z M 397.5 63 L 397.5 53.9 A 57.946 57.946 0 0 0 394.282 54.396 Q 392.659 54.696 391.294 55.065 A 23.092 23.092 0 0 0 388.75 55.9 A 18.341 18.341 0 0 0 386.946 56.729 Q 385.089 57.718 384.15 58.9 A 6.331 6.331 0 0 0 383.117 60.733 A 5.574 5.574 0 0 0 382.8 62.6 A 6 6 0 0 0 382.961 64.036 A 3.835 3.835 0 0 0 384.45 66.3 A 5.811 5.811 0 0 0 386.318 67.181 Q 387.101 67.4 388.028 67.469 A 11.835 11.835 0 0 0 388.9 67.5 A 10.281 10.281 0 0 0 391.277 67.236 A 8.129 8.129 0 0 0 393.6 66.3 Q 395.6 65.1 397.5 63 Z"
              id="7"
              vector-effect="non-scaling-stroke"
              class="svg-elem-7"
            ></path>
            <path
              d="M 427.7 100.7 L 430.9 87.2 A 8.954 8.954 0 0 1 431.638 87.326 Q 432.013 87.405 432.423 87.52 A 15.453 15.453 0 0 1 432.7 87.6 Q 433.7 87.9 434.7 87.9 Q 438.8 87.9 441 86 A 10.647 10.647 0 0 0 443.922 81.855 A 12.938 12.938 0 0 0 444.2 81.1 L 445 78.2 L 423.2 23 L 441.1 23 L 448.7 46.6 Q 450 50.5 451 54.5 Q 452 58.5 453.1 62.7 L 453.6 62.7 Q 454.4 58.6 455.35 54.6 Q 456.3 50.6 457.3 46.6 L 463.9 23 L 480.9 23 L 461.3 80 A 72.156 72.156 0 0 1 458.915 85.723 Q 457.635 88.44 456.241 90.697 A 39.09 39.09 0 0 1 455.3 92.15 Q 452 97 447.45 99.4 A 19.474 19.474 0 0 1 442.514 101.162 Q 440.333 101.64 437.816 101.76 A 36.15 36.15 0 0 1 436.1 101.8 A 43.366 43.366 0 0 1 434.127 101.758 Q 432.588 101.688 431.4 101.5 Q 429.5 101.2 427.7 100.7 Z"
              id="8"
              vector-effect="non-scaling-stroke"
              class="svg-elem-8"
            ></path>
            <path
              d="M 492 40.8 L 485.8 29.1 Q 489.6 26.8 493.55 25.15 Q 497.5 23.5 501.7 22.55 Q 505.9 21.6 510.3 21.6 Q 517.013 21.6 521.834 23.905 A 19.342 19.342 0 0 1 522.8 24.4 A 17.885 17.885 0 0 1 529.887 31.559 A 22.471 22.471 0 0 1 530.6 32.95 Q 532.771 37.573 533.196 44.231 A 52.849 52.849 0 0 1 533.3 47.6 L 533.3 79.9 L 518.8 79.9 L 517.6 74.2 L 517.1 74.2 Q 513.6 77.3 509.55 79.3 Q 505.5 81.3 500.8 81.3 A 19.344 19.344 0 0 1 496.233 80.784 A 15.155 15.155 0 0 1 491.8 78.95 Q 488 76.6 485.95 72.65 A 18.432 18.432 0 0 1 483.902 64.293 A 21.392 21.392 0 0 1 483.9 64 A 17.22 17.22 0 0 1 485.235 57.109 Q 486.864 53.333 490.482 50.604 A 21.017 21.017 0 0 1 491.4 49.95 A 28.546 28.546 0 0 1 496.976 47.111 Q 504.088 44.338 515.5 43.1 A 11.959 11.959 0 0 0 515.175 41.149 A 8.686 8.686 0 0 0 514.4 39.15 A 5.668 5.668 0 0 0 512.016 36.831 A 7.1 7.1 0 0 0 511.65 36.65 A 8.323 8.323 0 0 0 509.974 36.1 Q 508.622 35.8 506.9 35.8 A 19.521 19.521 0 0 0 501.923 36.468 A 23.717 23.717 0 0 0 499.9 37.1 A 43.77 43.77 0 0 0 496.616 38.448 Q 494.968 39.2 493.196 40.147 A 74.527 74.527 0 0 0 492 40.8 Z M 515.5 63 L 515.5 53.9 A 57.946 57.946 0 0 0 512.282 54.396 Q 510.659 54.696 509.294 55.065 A 23.092 23.092 0 0 0 506.75 55.9 A 18.341 18.341 0 0 0 504.946 56.729 Q 503.089 57.718 502.15 58.9 A 6.331 6.331 0 0 0 501.117 60.733 A 5.574 5.574 0 0 0 500.8 62.6 A 6 6 0 0 0 500.961 64.036 A 3.835 3.835 0 0 0 502.45 66.3 A 5.811 5.811 0 0 0 504.318 67.181 Q 505.101 67.4 506.028 67.469 A 11.835 11.835 0 0 0 506.9 67.5 A 10.281 10.281 0 0 0 509.277 67.236 A 8.129 8.129 0 0 0 511.6 66.3 Q 513.6 65.1 515.5 63 Z"
              id="9"
              vector-effect="non-scaling-stroke"
              class="svg-elem-9"
            ></path>
            <path
              d="M 564.8 79.9 L 547 79.9 L 547 23 L 561.5 23 L 562.8 30.2 L 563.1 30.2 Q 566.6 26.7 570.6 24.15 A 15.833 15.833 0 0 1 576.064 22.005 A 22.108 22.108 0 0 1 580.4 21.6 Q 585.198 21.6 588.575 23.187 A 12.972 12.972 0 0 1 590.05 24 A 15.533 15.533 0 0 1 594.64 28.587 A 19.979 19.979 0 0 1 596 31 Q 599.7 27.2 603.9 24.4 A 16.65 16.65 0 0 1 611.294 21.744 A 21.312 21.312 0 0 1 613.8 21.6 A 21.913 21.913 0 0 1 619.059 22.19 A 13.632 13.632 0 0 1 627.35 27.8 Q 630.722 32.719 631.419 40.472 A 47.29 47.29 0 0 1 631.6 44.7 L 631.6 79.9 L 613.8 79.9 L 613.8 46.9 A 35.219 35.219 0 0 0 613.709 44.265 Q 613.425 40.491 612.25 38.9 Q 610.789 36.92 607.684 36.807 A 10.507 10.507 0 0 0 607.3 36.8 Q 605.725 36.8 603.874 37.659 A 13.765 13.765 0 0 0 603.1 38.05 Q 601.312 39.022 599.343 40.809 A 32.715 32.715 0 0 0 598.2 41.9 L 598.2 79.9 L 580.4 79.9 L 580.4 46.9 A 34.123 34.123 0 0 0 580.306 44.265 Q 580.111 41.759 579.511 40.216 A 5.376 5.376 0 0 0 578.8 38.9 A 5.078 5.078 0 0 0 576.011 37.071 Q 575.022 36.8 573.8 36.8 Q 572.225 36.8 570.374 37.659 A 13.765 13.765 0 0 0 569.6 38.05 Q 567.3 39.3 564.8 41.9 L 564.8 79.9 Z"
              id="10"
              vector-effect="non-scaling-stroke"
              class="svg-elem-10"
            ></path>
            <path
              d="M 651.1 40.8 L 644.9 29.1 Q 648.7 26.8 652.65 25.15 Q 656.6 23.5 660.8 22.55 Q 665 21.6 669.4 21.6 Q 676.113 21.6 680.934 23.905 A 19.342 19.342 0 0 1 681.9 24.4 A 17.885 17.885 0 0 1 688.987 31.559 A 22.471 22.471 0 0 1 689.7 32.95 Q 691.871 37.573 692.296 44.231 A 52.849 52.849 0 0 1 692.4 47.6 L 692.4 79.9 L 677.9 79.9 L 676.7 74.2 L 676.2 74.2 Q 672.7 77.3 668.65 79.3 Q 664.6 81.3 659.9 81.3 A 19.344 19.344 0 0 1 655.333 80.784 A 15.155 15.155 0 0 1 650.9 78.95 Q 647.1 76.6 645.05 72.65 A 18.432 18.432 0 0 1 643.002 64.293 A 21.392 21.392 0 0 1 643 64 A 17.22 17.22 0 0 1 644.335 57.109 Q 645.964 53.333 649.582 50.604 A 21.017 21.017 0 0 1 650.5 49.95 A 28.546 28.546 0 0 1 656.076 47.111 Q 663.188 44.338 674.6 43.1 A 11.959 11.959 0 0 0 674.275 41.149 A 8.686 8.686 0 0 0 673.5 39.15 A 5.668 5.668 0 0 0 671.116 36.831 A 7.1 7.1 0 0 0 670.75 36.65 A 8.323 8.323 0 0 0 669.074 36.1 Q 667.722 35.8 666 35.8 A 19.521 19.521 0 0 0 661.023 36.468 A 23.717 23.717 0 0 0 659 37.1 A 43.77 43.77 0 0 0 655.716 38.448 Q 654.068 39.2 652.296 40.147 A 74.527 74.527 0 0 0 651.1 40.8 Z M 674.6 63 L 674.6 53.9 A 57.946 57.946 0 0 0 671.382 54.396 Q 669.759 54.696 668.394 55.065 A 23.092 23.092 0 0 0 665.85 55.9 A 18.341 18.341 0 0 0 664.046 56.729 Q 662.189 57.718 661.25 58.9 A 6.331 6.331 0 0 0 660.217 60.733 A 5.574 5.574 0 0 0 659.9 62.6 A 6 6 0 0 0 660.061 64.036 A 3.835 3.835 0 0 0 661.55 66.3 A 5.811 5.811 0 0 0 663.418 67.181 Q 664.201 67.4 665.128 67.469 A 11.835 11.835 0 0 0 666 67.5 A 10.281 10.281 0 0 0 668.377 67.236 A 8.129 8.129 0 0 0 670.7 66.3 Q 672.7 65.1 674.6 63 Z"
              id="11"
              vector-effect="non-scaling-stroke"
              class="svg-elem-11"
            ></path>
            <path
              d="M 748.3 79.9 L 730.4 79.9 L 730.4 5.4 L 748.3 5.4 L 748.3 33.8 L 772.8 33.8 L 772.8 5.4 L 790.6 5.4 L 790.6 79.9 L 772.8 79.9 L 772.8 49.3 L 748.3 49.3 L 748.3 79.9 Z"
              id="13"
              vector-effect="non-scaling-stroke"
              class="svg-elem-12"
            ></path>
            <path
              d="M 812 40.8 L 805.8 29.1 Q 809.6 26.8 813.55 25.15 Q 817.5 23.5 821.7 22.55 Q 825.9 21.6 830.3 21.6 Q 837.013 21.6 841.834 23.905 A 19.342 19.342 0 0 1 842.8 24.4 A 17.885 17.885 0 0 1 849.887 31.559 A 22.471 22.471 0 0 1 850.6 32.95 Q 852.771 37.573 853.196 44.231 A 52.849 52.849 0 0 1 853.3 47.6 L 853.3 79.9 L 838.8 79.9 L 837.6 74.2 L 837.1 74.2 Q 833.6 77.3 829.55 79.3 Q 825.5 81.3 820.8 81.3 A 19.344 19.344 0 0 1 816.233 80.784 A 15.155 15.155 0 0 1 811.8 78.95 Q 808 76.6 805.95 72.65 A 18.432 18.432 0 0 1 803.902 64.293 A 21.392 21.392 0 0 1 803.9 64 A 17.22 17.22 0 0 1 805.235 57.109 Q 806.864 53.333 810.482 50.604 A 21.017 21.017 0 0 1 811.4 49.95 A 28.546 28.546 0 0 1 816.976 47.111 Q 824.088 44.338 835.5 43.1 A 11.959 11.959 0 0 0 835.175 41.149 A 8.686 8.686 0 0 0 834.4 39.15 A 5.668 5.668 0 0 0 832.016 36.831 A 7.1 7.1 0 0 0 831.65 36.65 A 8.323 8.323 0 0 0 829.974 36.1 Q 828.622 35.8 826.9 35.8 A 19.521 19.521 0 0 0 821.923 36.468 A 23.717 23.717 0 0 0 819.9 37.1 A 43.77 43.77 0 0 0 816.616 38.448 Q 814.968 39.2 813.196 40.147 A 74.527 74.527 0 0 0 812 40.8 Z M 835.5 63 L 835.5 53.9 A 57.946 57.946 0 0 0 832.282 54.396 Q 830.659 54.696 829.294 55.065 A 23.092 23.092 0 0 0 826.75 55.9 A 18.341 18.341 0 0 0 824.946 56.729 Q 823.089 57.718 822.15 58.9 A 6.331 6.331 0 0 0 821.117 60.733 A 5.574 5.574 0 0 0 820.8 62.6 A 6 6 0 0 0 820.961 64.036 A 3.835 3.835 0 0 0 822.45 66.3 A 5.811 5.811 0 0 0 824.318 67.181 Q 825.101 67.4 826.028 67.469 A 11.835 11.835 0 0 0 826.9 67.5 A 10.281 10.281 0 0 0 829.277 67.236 A 8.129 8.129 0 0 0 831.6 66.3 Q 833.6 65.1 835.5 63 Z"
              id="14"
              vector-effect="non-scaling-stroke"
              class="svg-elem-13"
            ></path>
            <path
              d="M 884.8 79.9 L 867 79.9 L 867 23 L 881.5 23 L 882.8 32.9 L 883.1 32.9 A 29.511 29.511 0 0 1 885.89 28.747 Q 887.761 26.44 889.932 24.888 A 17.762 17.762 0 0 1 890.65 24.4 A 19.132 19.132 0 0 1 894.413 22.498 A 14.125 14.125 0 0 1 899.3 21.6 A 31.761 31.761 0 0 1 900.822 21.634 Q 902.281 21.704 903.306 21.919 A 9.183 9.183 0 0 1 903.45 21.95 Q 905 22.3 906.2 22.8 L 903.3 38.1 Q 901.7 37.7 900.3 37.45 Q 898.9 37.2 897 37.2 A 9.59 9.59 0 0 0 893.816 37.774 Q 892.586 38.205 891.308 38.96 A 18.632 18.632 0 0 0 890.45 39.5 Q 887 41.8 884.8 47.4 L 884.8 79.9 Z"
              id="15"
              vector-effect="non-scaling-stroke"
              class="svg-elem-14"
            ></path>
            <path
              d="M 912.8 58.2 L 912.8 23 L 930.6 23 L 930.6 56 Q 930.6 61.8 932.2 63.95 Q 933.767 66.055 937.06 66.099 A 10.577 10.577 0 0 0 937.2 66.1 Q 940.2 66.1 942.35 64.75 A 11.079 11.079 0 0 0 943.97 63.491 Q 944.732 62.786 945.501 61.864 A 25.344 25.344 0 0 0 946.7 60.3 L 946.7 23 L 964.5 23 L 964.5 79.9 L 950 79.9 L 948.7 72.1 L 948.3 72.1 Q 944.8 76.3 940.6 78.8 A 17.481 17.481 0 0 1 934.562 80.977 A 23.366 23.366 0 0 1 930.6 81.3 A 22.156 22.156 0 0 1 925.355 80.72 A 13.515 13.515 0 0 1 917 75.05 A 22.535 22.535 0 0 1 914.056 68.493 Q 913.232 65.542 912.948 62.032 A 47.658 47.658 0 0 1 912.8 58.2 Z"
              id="16"
              vector-effect="non-scaling-stroke"
              class="svg-elem-15"
            ></path>
            <path
              d="M 981.1 58.8 L 981.1 36.9 L 973.4 36.9 L 973.4 23.7 L 982.2 23 L 984.2 7.9 L 998.9 7.9 L 998.9 23 L 1012.3 23 L 1012.3 36.9 L 998.9 36.9 L 998.9 58.6 A 17.042 17.042 0 0 0 999.053 60.972 Q 999.461 63.861 1000.95 65.35 Q 1003 67.4 1006.1 67.4 Q 1007.5 67.4 1008.9 67.05 Q 1010.3 66.7 1011.3 66.3 L 1014.1 79.2 A 45.769 45.769 0 0 1 1012.316 79.725 Q 1011.318 79.998 1010.174 80.272 A 91.164 91.164 0 0 1 1008.75 80.6 A 26.841 26.841 0 0 1 1005.87 81.066 Q 1004.408 81.227 1002.749 81.277 A 51.175 51.175 0 0 1 1001.2 81.3 Q 995.664 81.3 991.738 79.567 A 15.39 15.39 0 0 1 989.65 78.45 Q 985.2 75.6 983.15 70.55 A 27.029 27.029 0 0 1 981.521 64.533 A 37.193 37.193 0 0 1 981.1 58.8 Z"
              id="17"
              vector-effect="non-scaling-stroke"
              class="svg-elem-16"
            ></path>
            <path
              d="M 1045.1 81.3 Q 1037.9 81.3 1031.5 77.75 Q 1025.1 74.2 1021.15 67.5 A 27.867 27.867 0 0 1 1017.803 58.332 A 38.106 38.106 0 0 1 1017.2 51.4 A 37.346 37.346 0 0 1 1017.943 43.765 A 27.242 27.242 0 0 1 1021.15 35.35 Q 1025.1 28.7 1031.5 25.15 Q 1037.9 21.6 1045.1 21.6 Q 1050.5 21.6 1055.5 23.6 Q 1060.5 25.6 1064.4 29.45 A 27.692 27.692 0 0 1 1069.842 37.122 A 32.505 32.505 0 0 1 1070.6 38.8 A 29.149 29.149 0 0 1 1072.52 45.895 A 38.39 38.39 0 0 1 1072.9 51.4 A 37.428 37.428 0 0 1 1072.144 59.108 A 27.56 27.56 0 0 1 1068.95 67.5 A 28.382 28.382 0 0 1 1062.559 75.081 A 26.358 26.358 0 0 1 1058.65 77.75 Q 1052.3 81.3 1045.1 81.3 Z M 1045.1 66.9 A 9.404 9.404 0 0 0 1047.658 66.568 A 7.295 7.295 0 0 0 1050.55 65 Q 1052.7 63.1 1053.7 59.6 A 24.447 24.447 0 0 0 1054.418 56.055 Q 1054.647 54.302 1054.69 52.324 A 42.523 42.523 0 0 0 1054.7 51.4 A 37.273 37.273 0 0 0 1054.522 47.657 Q 1054.331 45.772 1053.937 44.143 A 20.715 20.715 0 0 0 1053.7 43.25 A 13.889 13.889 0 0 0 1052.701 40.708 Q 1051.829 39.03 1050.55 37.9 A 7.492 7.492 0 0 0 1046.584 36.104 A 10.201 10.201 0 0 0 1045.1 36 A 9.404 9.404 0 0 0 1042.542 36.332 A 7.295 7.295 0 0 0 1039.65 37.9 A 9.762 9.762 0 0 0 1037.585 40.517 Q 1036.956 41.653 1036.512 43.05 A 17.056 17.056 0 0 0 1036.45 43.25 A 22.751 22.751 0 0 0 1035.697 46.757 Q 1035.456 48.5 1035.41 50.476 A 40.433 40.433 0 0 0 1035.4 51.4 Q 1035.4 56.1 1036.45 59.6 Q 1037.5 63.1 1039.65 65 A 7.492 7.492 0 0 0 1043.616 66.796 A 10.201 10.201 0 0 0 1045.1 66.9 Z"
              id="18"
              vector-effect="non-scaling-stroke"
              class="svg-elem-17"
            ></path>
            <path
              d="M 1088.549 80.55 A 10.635 10.635 0 0 0 1092.6 81.3 A 12.712 12.712 0 0 0 1093.028 81.293 A 9.829 9.829 0 0 0 1100.2 78.05 Q 1103.2 74.8 1103.2 70.2 A 14.174 14.174 0 0 0 1103.181 69.466 A 10.782 10.782 0 0 0 1100.2 62.35 A 9.864 9.864 0 0 0 1096.546 59.886 A 10.981 10.981 0 0 0 1092.6 59.2 A 13.194 13.194 0 0 0 1092.279 59.204 A 9.986 9.986 0 0 0 1085 62.35 A 10.536 10.536 0 0 0 1082.654 66.15 A 12.115 12.115 0 0 0 1082 70.2 Q 1082 74.8 1085 78.05 A 9.873 9.873 0 0 0 1088.549 80.55 Z"
              id="19"
              vector-effect="non-scaling-stroke"
              class="svg-elem-18"
            ></path>
        </g>
    </g>
</svg>