<?xml version="1.0" encoding="UTF-8"?>
<svg xmlns="http://www.w3.org/2000/svg" xmlns:xlink="http://www.w3.org/1999/xlink" width="300px" height="300px" viewBox="0 0 300 300" version="1.1">
<g id="surface1">
<path style=" stroke:none;fill-rule:evenodd;fill:rgb(14.509804%,14.509804%,14.509804%);fill-opacity:1;" d="M 149.554688 0 C 66.855469 0 0 68.75 0 153.804688 C 0 221.789062 42.835938 279.339844 102.261719 299.710938 C 109.691406 301.242188 112.410156 296.398438 112.410156 292.328125 C 112.410156 288.761719 112.167969 276.539062 112.167969 263.804688 C 70.5625 272.976562 61.902344 245.472656 61.902344 245.472656 C 55.214844 227.648438 45.308594 223.066406 45.308594 223.066406 C 31.691406 213.644531 46.300781 213.644531 46.300781 213.644531 C 61.40625 214.664062 69.332031 229.429688 69.332031 229.429688 C 82.699219 252.855469 104.242188 246.238281 112.90625 242.164062 C 114.144531 232.230469 118.109375 225.355469 122.316406 221.539062 C 89.136719 217.972656 54.226562 204.730469 54.226562 145.652344 C 54.226562 128.847656 60.164062 115.097656 69.574219 104.402344 C 68.089844 100.585938 62.890625 84.792969 71.0625 63.660156 C 71.0625 63.660156 83.691406 59.585938 112.164062 79.445312 C 124.351562 76.082031 136.925781 74.367188 149.554688 74.351562 C 162.179688 74.351562 175.054688 76.136719 186.941406 79.445312 C 215.414062 59.585938 228.042969 63.660156 228.042969 63.660156 C 236.214844 84.792969 231.011719 100.585938 229.527344 104.402344 C 239.1875 115.097656 244.878906 128.847656 244.878906 145.652344 C 244.878906 204.730469 209.96875 217.714844 176.539062 221.539062 C 181.988281 226.375 186.691406 235.539062 186.691406 250.054688 C 186.691406 270.679688 186.445312 287.234375 186.445312 292.324219 C 186.445312 296.398438 189.171875 301.242188 196.597656 299.710938 C 256.023438 279.335938 298.859375 221.789062 298.859375 153.804688 C 299.101562 68.75 232.003906 0 149.554688 0 Z M 149.554688 0 "/>
</g>
</svg>
